<?xml version="1.0" encoding="UTF-8"?>
<!DOCTYPE svg PUBLIC "-//W3C//DTD SVG 1.1//EN" "http://www.w3.org/Graphics/SVG/1.1/DTD/svg11.dtd">
<!-- Creator: CorelDRAW 2018 -->
<svg xmlns="http://www.w3.org/2000/svg" xml:space="preserve" width="25px" height="25px" version="1.1" style="shape-rendering:geometricPrecision; text-rendering:geometricPrecision; image-rendering:optimizeQuality; fill-rule:evenodd; clip-rule:evenodd"
viewBox="0 0 25 25"
 xmlns:xlink="http://www.w3.org/1999/xlink">
 <defs>
  <style type="text/css">
   <![CDATA[
    .fil0 {fill:black}
   ]]>
  </style>
 </defs>
 <g id="Layer_x0020_1">
  <metadata id="CorelCorpID_0Corel-Layer"/>
  <path class="fil0" d="M21 11.1c-5.04,0.14 -11.18,0.01 -16.43,0.01 -2.08,0 -4.35,-0.32 -4.33,1.12 0.01,1.37 2.23,1.12 4.33,1.12 5.25,0 11.39,-0.14 16.43,0.01 -0.45,0.83 -5.82,5.68 -6.09,6.26 -0.53,1.14 0.85,2.19 1.92,1.18 1.86,-1.72 4.24,-4.24 6.16,-6.15 2.84,-2.85 2.76,-2.08 -1.89,-6.74 -1.4,-1.39 -2.71,-2.72 -4.11,-4.1 -1.05,-1.05 -2.47,-0.34 -2.1,0.92 0.21,0.69 5.59,5.42 6.11,6.37z"/>
 </g>
</svg>
