<?xml version="1.0" encoding="UTF-8"?>
<!DOCTYPE svg PUBLIC "-//W3C//DTD SVG 1.1//EN" "http://www.w3.org/Graphics/SVG/1.1/DTD/svg11.dtd">
<!-- Creator: CorelDRAW 2018 -->
<svg xmlns="http://www.w3.org/2000/svg" xml:space="preserve" width="40px" height="40px" version="1.1" style="shape-rendering:geometricPrecision; text-rendering:geometricPrecision; image-rendering:optimizeQuality; fill-rule:evenodd; clip-rule:evenodd"
viewBox="0 0 40 40"
 xmlns:xlink="http://www.w3.org/1999/xlink">
 <defs>
  <style type="text/css">
   <![CDATA[
    .fil0 {fill:#9B9B9B}
   ]]>
  </style>
 </defs>
 <g id="Layer_x0020_1">
  <metadata id="CorelCorpID_0Corel-Layer"/>
  <path class="fil0" d="M19.2 1.06c-1.32,0.27 -1.99,0.92 -2.87,1.5 -0.88,0.58 -1.7,1.11 -2.59,1.69l-10.31 6.76c-0.47,0.31 -0.8,0.53 -1.29,0.84 -0.53,0.34 -0.81,0.47 -0.83,1.22l0.01 17.01c0,1.16 -0.11,2.3 -0.06,3.32l15.1 -13.65c-1.55,-1.06 -12.3,-6.47 -12.77,-7.18 0.5,-0.18 3.43,-2.15 4.11,-2.59l7.97 -5.22c4.86,-3.23 3.67,-3.12 8.52,0.05 1.11,0.73 11.3,7.51 12,7.76 -0.03,0.05 -10.63,5.66 -12.76,7.2l15.05 14.33c0.22,-1.51 -0.02,-3.41 -0.02,-5.3l0 -15.25c0.02,-1.61 -0.33,-1.39 -3.09,-3.17l-12.88 -8.45c-0.8,-0.56 -1.78,-1.17 -3.29,-0.87zm-16.49 35.36c0.03,0.01 0.06,0.03 0.08,0.05 1.38,0.81 6.6,0.49 8.69,0.49 7.52,0 15.77,0.23 23.21,0.14 0.79,-0.01 1.43,-0.12 1.93,-0.33 -1.66,-1.76 -16.63,-17.69 -16.71,-17.72l-17.2 17.37z"/>
 </g>
</svg>
