<?xml version="1.0" encoding="UTF-8"?>
<!DOCTYPE svg PUBLIC "-//W3C//DTD SVG 1.1//EN" "http://www.w3.org/Graphics/SVG/1.1/DTD/svg11.dtd">
<!-- Creator: CorelDRAW 2018 -->
<svg xmlns="http://www.w3.org/2000/svg" xml:space="preserve" width="35px" height="35px" version="1.1" style="shape-rendering:geometricPrecision; text-rendering:geometricPrecision; image-rendering:optimizeQuality; fill-rule:evenodd; clip-rule:evenodd"
viewBox="0 0 35 35"
 xmlns:xlink="http://www.w3.org/1999/xlink">
 <defs>
  <style type="text/css">
   <![CDATA[
    .fil0 {fill:#9B9B9B}
   ]]>
  </style>
 </defs>
 <g id="Layer_x0020_1">
  <metadata id="CorelCorpID_0Corel-Layer"/>
  <g id="_792989352">
   <path class="fil0" d="M17.39 0.41c9.55,0 17.29,7.63 17.29,17.04 0,9.41 -7.74,17.04 -17.29,17.04 -9.54,0 -17.29,-7.63 -17.29,-17.04 0,-9.41 7.75,-17.04 17.29,-17.04zm0 6.05c5.3,0 9.59,4.92 9.59,10.99 0,6.07 -4.29,10.99 -9.59,10.99 -5.29,0 -9.58,-4.92 -9.58,-10.99 0,-6.07 4.29,-10.99 9.58,-10.99z"/>
   <path class="fil0" d="M2.14 12.85c-1.39,4.93 0.48,9.98 2.37,12.79 0.06,0.09 0.13,0.2 0.19,0.28 1.39,2.07 2.03,2.72 4.04,4.16 4.98,3.57 11.48,4.23 16.85,0.95 0.43,-0.26 1.08,-0.75 1.35,-0.95 1.93,-1.39 2.69,-2.16 4.04,-4.16l2.56 -5.71c0.58,-2.05 0.58,-5.3 0,-7.35 -1.12,-3.93 -3.18,-5.13 -7.04,-7.88 -9.75,-6.93 -21.14,-3.53 -24.36,7.87zm12.98 2.76l-2.67 -0.02 -0.01 2.96 2.54 0.1 0.17 8.07 3.35 -0.18 -0.09 -8.03 2.65 -0.05 0.04 -2.79 -2.56 -0.11c0.05,-1.07 -0.07,-2.27 0.55,-3.05 0.62,-0.78 1.42,-0.45 2.33,-0.59l-0.02 -2.77 -3.84 0.18c-2.51,0.11 -2.38,3.79 -2.44,6.28z"/>
  </g>
 </g>
</svg>
