<?xml version="1.0" encoding="UTF-8"?>
<!DOCTYPE svg PUBLIC "-//W3C//DTD SVG 1.1//EN" "http://www.w3.org/Graphics/SVG/1.1/DTD/svg11.dtd">
<!-- Creator: CorelDRAW 2018 -->
<svg xmlns="http://www.w3.org/2000/svg" xml:space="preserve" width="40px" height="55px" version="1.1" style="shape-rendering:geometricPrecision; text-rendering:geometricPrecision; image-rendering:optimizeQuality; fill-rule:evenodd; clip-rule:evenodd"
viewBox="0 0 40 55"
 xmlns:xlink="http://www.w3.org/1999/xlink">
 <defs>
  <style type="text/css">
   <![CDATA[
    .fil0 {fill:#9B9B9B}
   ]]>
  </style>
 </defs>
 <g id="Layer_x0020_1">
  <metadata id="CorelCorpID_0Corel-Layer"/>
  <path class="fil0" d="M18.58 1.46c-12.73,1.59 -19.8,13.75 -15.15,26.34 0.96,2.6 2.26,5.33 3.55,7.57 1.45,2.53 2.77,4.46 4.3,6.81 1.16,1.79 5.49,7.52 7.27,9.5 2.51,2.8 3.19,0.9 5.96,-2.32 0.78,-0.9 1.68,-2.11 2.47,-3.19 1.6,-2.18 3.03,-4.23 4.58,-6.54 2.62,-3.89 5.92,-9.85 7.17,-15.24 2.96,-12.76 -7.66,-24.5 -20.15,-22.93zm0.93 9.25c-4.84,0.6 -8.84,4.83 -8.29,10.33 0.49,4.9 4.96,9.08 10.56,8.38 4.69,-0.59 8.74,-4.93 8.13,-10.4 -0.53,-4.81 -4.92,-8.98 -10.4,-8.31z"/>
 </g>
</svg>
