<?xml version="1.0" encoding="UTF-8"?>
<!DOCTYPE svg PUBLIC "-//W3C//DTD SVG 1.1//EN" "http://www.w3.org/Graphics/SVG/1.1/DTD/svg11.dtd">
<!-- Creator: CorelDRAW 2018 -->
<svg xmlns="http://www.w3.org/2000/svg" xml:space="preserve" width="40px" height="40px" version="1.1" style="shape-rendering:geometricPrecision; text-rendering:geometricPrecision; image-rendering:optimizeQuality; fill-rule:evenodd; clip-rule:evenodd"
viewBox="0 0 40 40"
 xmlns:xlink="http://www.w3.org/1999/xlink">
 <defs>
  <style type="text/css">
   <![CDATA[
    .fil0 {fill:#333333}
   ]]>
  </style>
 </defs>
 <g id="Layer_x0020_1">
  <metadata id="CorelCorpID_0Corel-Layer"/>
  <path class="fil0" d="M24.48 25.79l2.8 2.87c1.03,1.04 1.97,1.98 3.01,3.01 0.62,0.62 2.22,2.82 3.71,1.33 1.48,-1.48 -0.7,-3.09 -1.33,-3.71l-5.75 -5.94c1.86,-2.94 3.15,-5.55 2.57,-9.68 -0.24,-1.7 -0.8,-3.37 -1.54,-4.64 -6.88,-11.68 -23.9,-6.91 -24.46,5.75 -0.3,6.68 4.43,12.64 11.28,13.59 1.91,0.26 3.87,0.07 5.59,-0.45 1.85,-0.55 2.82,-1.29 4.12,-2.13zm-8.98 -20.03c-5.01,0.58 -9.25,4.99 -8.61,10.73 0.55,4.97 5,9.25 10.76,8.59 4.99,-0.57 9.2,-5.08 8.55,-10.82 -0.56,-4.9 -5.08,-9.16 -10.7,-8.5z"/>
 </g>
</svg>
