<?xml version="1.0" encoding="UTF-8"?>
<!DOCTYPE svg PUBLIC "-//W3C//DTD SVG 1.1//EN" "http://www.w3.org/Graphics/SVG/1.1/DTD/svg11.dtd">
<!-- Creator: CorelDRAW 2018 -->
<svg xmlns="http://www.w3.org/2000/svg" xml:space="preserve" width="40px" height="40px" version="1.1" style="shape-rendering:geometricPrecision; text-rendering:geometricPrecision; image-rendering:optimizeQuality; fill-rule:evenodd; clip-rule:evenodd"
viewBox="0 0 40 40"
 xmlns:xlink="http://www.w3.org/1999/xlink">
 <defs>
  <style type="text/css">
   <![CDATA[
    .fil1 {fill:#FEFEFE}
    .fil0 {fill:#CB0909}
    .fil2 {fill:#FEFEFE;fill-rule:nonzero}
   ]]>
  </style>
 </defs>
 <g id="Layer_x0020_1">
  <metadata id="CorelCorpID_0Corel-Layer"/>
  <rect class="fil0" width="40" height="40"/>
  <path class="fil0" d="M0.96 2.6l0 34.12c0,2.33 -0.23,2.1 2.1,2.1l34.09 0c2.8,0 2.09,-0.09 2.1,-2.99l0.01 -32.64c0.05,-2.78 0.48,-2.69 -2.11,-2.69l-34.09 0c-2.32,0 -2.1,-0.22 -2.1,2.1z"/>
  <path class="fil1" d="M13.24 21.76c0,0.08 0.07,0.11 0.08,0.23l0.17 0.42c0.02,0.05 0.06,0.14 0.08,0.19 0.34,0.76 0.08,0.21 0.29,0.65 -1.16,1.59 -2.14,3.36 -3.97,2.79 -0.07,-1.34 2.96,-2.47 3.6,-3.63 -0.1,-0.25 -0.13,-0.33 -0.25,-0.64 -3.39,0.19 -6.85,5.65 -3.32,5.85 2.18,0.12 4.7,-2.86 5.87,-4.51 1.87,-2.62 6.87,-3.56 9.56,-1.5 0.05,0.04 0.12,0.09 0.17,0.13l0.34 0.25c4.02,2.88 9.87,-1.03 2.44,-3.01 -2.75,-0.73 -4.39,0.98 -6.02,-1.83 -1.66,-2.84 -1.92,-2.72 -1.39,-5.48 0.51,-2.67 -0.05,-6.05 -0.57,-6.77 -3.14,-3.93 -2.26,9.46 -2.52,10.07 -0.45,1.06 -0.41,0.66 -0.84,1.94 -0.74,2.2 -1.65,4 -3.72,4.85zm12.31 -1.24c0.7,0.56 3.29,1.84 4.12,1.46 0.43,-0.2 0.15,-0.75 -0.4,-0.9 -0.33,-0.08 -0.71,-0.28 -1.12,-0.38 -0.48,-0.13 -0.94,-0.25 -1.43,-0.22 -0.25,0.02 -0.63,-0.07 -0.94,0.01 -0.05,0.01 -0.25,0.01 -0.23,0.03zm-6.15 -9.31c0.37,-0.8 0.97,-3.64 0.39,-4.34 -0.3,-0.37 -0.76,0.03 -0.77,0.61 -0.01,0.33 -0.1,0.75 -0.1,1.18 0,0.49 0,0.97 0.15,1.44 0.08,0.23 0.08,0.62 0.24,0.9 0.02,0.05 0.07,0.25 0.09,0.21z"/>
  <path class="fil0" d="M18.44 19.54c1.58,0 1.77,-0.03 3.28,-0.48 -0.46,-1.07 -1.29,-2.01 -1.91,-2.92 -0.08,0.13 -1.31,3.19 -1.37,3.4z"/>
  <path class="fil2" d="M11.42 36.94l0 -7.85 2.54 0c0.97,0 1.59,0.04 1.89,0.12 0.45,0.12 0.82,0.38 1.13,0.77 0.3,0.4 0.45,0.9 0.45,1.53 0,0.48 -0.09,0.89 -0.26,1.21 -0.18,0.33 -0.4,0.59 -0.66,0.78 -0.27,0.19 -0.55,0.31 -0.83,0.37 -0.37,0.08 -0.92,0.11 -1.64,0.11l-1.03 0 0 2.96 -1.59 0zm1.59 -6.52l0 2.24 0.87 0c0.62,0 1.04,-0.05 1.25,-0.13 0.21,-0.08 0.37,-0.21 0.49,-0.38 0.12,-0.18 0.18,-0.38 0.18,-0.62 0,-0.28 -0.09,-0.52 -0.25,-0.71 -0.17,-0.18 -0.38,-0.3 -0.64,-0.35 -0.19,-0.03 -0.57,-0.05 -1.13,-0.05l-0.77 0zm5.73 -1.33l2.89 0c0.65,0 1.15,0.05 1.49,0.15 0.46,0.14 0.85,0.38 1.18,0.73 0.33,0.34 0.57,0.77 0.75,1.27 0.17,0.5 0.25,1.12 0.25,1.85 0,0.65 -0.08,1.21 -0.24,1.67 -0.19,0.58 -0.47,1.04 -0.84,1.39 -0.27,0.27 -0.64,0.48 -1.11,0.63 -0.35,0.11 -0.81,0.16 -1.4,0.16l-2.97 0 0 -7.85zm1.58 1.33l0 5.2 1.18 0c0.44,0 0.76,-0.03 0.96,-0.08 0.26,-0.06 0.47,-0.17 0.64,-0.32 0.17,-0.16 0.3,-0.41 0.41,-0.76 0.11,-0.35 0.16,-0.83 0.16,-1.44 0,-0.61 -0.05,-1.07 -0.16,-1.4 -0.11,-0.32 -0.26,-0.57 -0.45,-0.76 -0.19,-0.18 -0.43,-0.3 -0.73,-0.36 -0.22,-0.05 -0.65,-0.08 -1.3,-0.08l-0.71 0zm6.33 6.52l0 -7.85 5.4 0 0 1.33 -3.81 0 0 1.86 3.29 0 0 1.33 -3.29 0 0 3.33 -1.59 0z"/>
 </g>
</svg>
