<?xml version="1.0" encoding="UTF-8"?>
<!DOCTYPE svg PUBLIC "-//W3C//DTD SVG 1.1//EN" "http://www.w3.org/Graphics/SVG/1.1/DTD/svg11.dtd">
<!-- Creator: CorelDRAW 2018 -->
<svg xmlns="http://www.w3.org/2000/svg" xml:space="preserve" width="40px" height="40px" version="1.1" style="shape-rendering:geometricPrecision; text-rendering:geometricPrecision; image-rendering:optimizeQuality; fill-rule:evenodd; clip-rule:evenodd"
viewBox="0 0 40 40"
 xmlns:xlink="http://www.w3.org/1999/xlink">
 <defs>
  <style type="text/css">
   <![CDATA[
    .fil0 {fill:#CC0A0A}
   ]]>
  </style>
 </defs>
 <g id="Layer_x0020_1">
  <metadata id="CorelCorpID_0Corel-Layer"/>
  <path class="fil0" d="M23.41 25.76c-2.14,-0.12 -9.21,-7.19 -9.35,-9.34 1.14,-1.34 4.22,-2.1 2.68,-5.34 -0.89,-1.88 -2.03,-3.87 -2.94,-5.75 -2.59,-5.42 -4.11,-3.9 -7.51,-1.61 -3.47,2.32 -5.35,2.66 -4.64,8.09 1.3,9.9 10.54,20.03 19.51,24.22 3.69,1.73 10.49,4.06 13.13,0.27l3.46 -5.22c0.6,-1.13 0.28,-2.56 -0.41,-3.33 -0.78,-0.87 -7.23,-4 -8.49,-4.62 -3.32,-1.63 -4.04,1.37 -5.44,2.63zm3.79 -0.58c-1.06,0.69 -2.26,4.49 -5.66,2.58 -1.05,-0.59 -1.83,-1.18 -2.73,-1.85 -0.47,-0.35 -0.86,-0.7 -1.31,-1.06 -0.44,-0.34 -0.79,-0.81 -1.17,-1.2 -1.83,-1.83 -2.63,-2.58 -4.15,-5.17 -1.77,-3.01 0.59,-4.58 2.4,-5.64 -0.02,-0.88 -1.54,-3.51 -2,-4.39 -0.52,-0.97 -1.76,-3.63 -2.21,-4.18 -0.87,0.1 -2.73,1.55 -3.51,2.07 -1.09,0.72 -2.61,1.36 -2.84,2.69 -0.42,2.49 1.28,6.94 2.17,8.81 1.62,3.39 3.47,5.58 5.62,8.12 0.46,0.55 0.86,0.97 1.38,1.46 2.76,2.63 6.12,5.05 9.87,6.71 1.75,0.78 7.13,2.58 8.82,1.18 0.34,-0.29 1.78,-2.61 2.23,-3.3 0.37,-0.56 0.73,-1.09 1.08,-1.61 0.71,-1.07 0.27,-1.07 -0.59,-1.49 -1.22,-0.6 -2.46,-1.31 -3.65,-1.88 -0.96,-0.47 -2.79,-1.64 -3.75,-1.85z"/>
 </g>
</svg>
