<?xml version="1.0" encoding="UTF-8"?>
<!DOCTYPE svg PUBLIC "-//W3C//DTD SVG 1.1//EN" "http://www.w3.org/Graphics/SVG/1.1/DTD/svg11.dtd">
<!-- Creator: CorelDRAW 2018 -->
<svg xmlns="http://www.w3.org/2000/svg" xml:space="preserve" width="40px" height="40px" version="1.1" style="shape-rendering:geometricPrecision; text-rendering:geometricPrecision; image-rendering:optimizeQuality; fill-rule:evenodd; clip-rule:evenodd"
viewBox="0 0 40 40"
 xmlns:xlink="http://www.w3.org/1999/xlink">
 <defs>
  <style type="text/css">
   <![CDATA[
    .fil0 {fill:#999999}
   ]]>
  </style>
 </defs>
 <g id="Layer_x0020_1">
  <metadata id="CorelCorpID_0Corel-Layer"/>
  <path class="fil0" d="M23.48 25.33c-2.12,-0.12 -9.14,-7.14 -9.28,-9.27 1.13,-1.33 4.19,-2.08 2.66,-5.3 -0.88,-1.86 -2.01,-3.84 -2.91,-5.7 -2.57,-5.38 -4.08,-3.87 -7.45,-1.6 -3.45,2.3 -5.31,2.64 -4.61,8.03 1.29,9.82 10.46,19.87 19.36,24.03 3.66,1.71 10.4,4.02 13.02,0.26l3.44 -5.18c0.59,-1.12 0.27,-2.54 -0.41,-3.3 -0.77,-0.86 -7.17,-3.97 -8.42,-4.58 -3.3,-1.62 -4.01,1.36 -5.4,2.61l0 0z"/>
 </g>
</svg>
