<?xml version="1.0" encoding="UTF-8"?>
<!DOCTYPE svg PUBLIC "-//W3C//DTD SVG 1.1//EN" "http://www.w3.org/Graphics/SVG/1.1/DTD/svg11.dtd">
<!-- Creator: CorelDRAW 2018 -->
<svg xmlns="http://www.w3.org/2000/svg" xml:space="preserve" width="35px" height="35px" version="1.1" style="shape-rendering:geometricPrecision; text-rendering:geometricPrecision; image-rendering:optimizeQuality; fill-rule:evenodd; clip-rule:evenodd"
viewBox="0 0 35 35"
 xmlns:xlink="http://www.w3.org/1999/xlink">
 <defs>
  <style type="text/css">
   <![CDATA[
    .fil0 {fill:#9B9B9B}
    .fil1 {fill:white}
   ]]>
  </style>
 </defs>
 <g id="Layer_x0020_1">
  <metadata id="CorelCorpID_0Corel-Layer"/>
  <g id="_787939504">
   <ellipse class="fil0" cx="17.52" cy="17.48" rx="16.98" ry="17.06"/>
   <path class="fil1" d="M18.4 24.64l2.26 -2.81c0.6,1.4 0.01,0.4 0.97,1.49 1.64,1.87 3.4,1.39 5.85,1.3 -0.11,-3.07 -2.62,-3.48 -2.86,-5 0.3,-3.1 3.07,-3.48 2.66,-6.79l-4.05 -0.07c-1.09,1.93 -2.08,4.71 -4.04,5.53l-0.25 -5.71 -4.79 0.02c0.4,1.21 1.55,0.95 0.66,5.78 -0.64,-0.32 -0.08,0.09 -0.65,-0.46 -1.22,-1.2 -1.37,-2.16 -2.02,-3.39 -1.15,-2.16 -2.05,-1.8 -4.57,-1.74 -0.19,2.08 2.09,6.06 3.23,7.73 0.05,0.08 0.14,0.2 0.2,0.29 1.84,2.55 3.64,3.81 7.4,3.83z"/>
  </g>
 </g>
</svg>
